<svg xmlns="http://www.w3.org/2000/svg" width="2175" height="1933" viewBox="0 0 2175 1933" fill="none"><path d="M352.465 0.166138C303.365 4.56614 260.965 15.5662 219.465 34.5662C143.765 69.2662 79.665 130.866 41.565 205.566C19.565 248.766 6.96495 290.766 1.26495 340.566C-0.63505 357.666 -0.33505 402.466 1.76495 420.566C7.16495 465.166 20.065 508.866 39.365 547.566C63.565 596.166 89.765 632.466 125.465 666.966C143.465 684.366 161.365 699.566 204.465 734.066C253.165 773.066 267.565 785.466 289.565 807.466C322.165 840.066 341.765 866.866 360.865 904.566C380.565 943.366 391.965 979.766 397.565 1021.37C400.365 1041.97 400.565 1080.17 398.065 1101.07C394.465 1130.97 385.965 1165.67 375.365 1194.27C362.165 1229.77 338.665 1278.27 300.565 1348.37C277.465 1391.07 269.365 1407.97 261.165 1430.67C223.365 1534.77 233.865 1649.07 289.865 1742.57C316.165 1786.57 354.565 1828.17 396.465 1857.97C454.365 1899.27 512.965 1922.27 581.465 1930.77C597.265 1932.77 642.565 1932.37 658.965 1930.17C723.265 1921.57 781.565 1898.37 834.965 1860.07C873.565 1832.47 897.365 1807.47 954.265 1735.17C984.265 1697.07 995.365 1683.57 1011.66 1665.87C1058.76 1614.67 1116.66 1575.07 1172.86 1555.87C1193.46 1548.87 1214.06 1544.07 1236.96 1540.97C1253.16 1538.77 1295.46 1538.47 1311.96 1540.37C1373.56 1547.67 1428.86 1567.17 1494.46 1604.57C1557.06 1640.37 1597.56 1660.67 1636.86 1676.07C1693.96 1698.37 1737.77 1706.87 1795.47 1706.97C1824.37 1707.07 1835.57 1706.17 1860.17 1701.97C2007.77 1676.87 2126.77 1567.07 2163.77 1422.07C2172.57 1387.47 2174.97 1367.87 2174.97 1328.57C2174.97 1295.07 2173.86 1282.67 2168.36 1255.07C2147.56 1149.67 2084.37 1059.57 1992.07 1003.57C1944.27 974.566 1886.67 955.666 1830.47 950.566C1815.67 949.266 1778.17 949.266 1763.97 950.566C1747.47 952.166 1709.57 957.366 1698.57 959.666C1600.47 979.766 1518.56 1039.17 1433.66 1152.07C1392.96 1206.07 1351.26 1250.07 1313.96 1278.27C1266.66 1313.97 1215.76 1334.37 1157.46 1341.17C1139.26 1343.17 1091.56 1342.67 1073.46 1340.17C1011.46 1331.57 951.265 1312.47 891.265 1282.47C814.465 1244.07 746.565 1189.07 686.865 1117.07C634.265 1053.57 607.365 994.066 600.465 925.666C598.965 910.866 599.265 874.366 600.965 858.366C606.165 808.866 621.365 756.666 647.065 699.766C656.465 679.166 663.465 665.766 688.465 620.566C731.765 542.666 746.465 507.466 755.865 458.666C761.965 427.266 763.665 386.766 760.165 357.766C758.265 342.766 750.865 304.166 746.265 286.066C736.065 245.166 717.465 203.066 694.165 168.066C639.465 86.1662 553.465 27.9661 457.165 7.66614C430.865 2.16614 414.965 0.466162 384.465 0.0661621C369.365 -0.0338379 354.965 -0.0338623 352.465 0.166138Z" fill="white"></path></svg>